<?xml version="1.0" encoding="UTF-8"?>
<svg id="Layer_1" data-name="Layer 1" xmlns="http://www.w3.org/2000/svg" viewBox="0 0 125.19 141.56">
  <path d="m-.02,89.29c0,5.48-.24,10.03.12,14.52.13,1.65,1.27,3.88,2.63,4.68,18.64,10.93,37.35,21.74,56.2,32.3,1.8,1.01,5.14,1.04,6.93.03,18.85-10.56,37.55-21.4,56.25-32.21,4.22-2.44,4.03-9.88-.21-12.33-20.98-12.12-41.96-24.24-62.95-36.36-11.67-6.74-23.34-13.48-35.48-20.5,2.95-1.76,5.59-3.11,7.99-4.82,2.71-1.93,4.96-1.75,7.85-.07,26.97,15.73,54.03,31.31,81.08,46.9,1.18.68,2.57.99,4.48,1.71,0-4.76-.19-8.75.06-12.7.2-3.15-.89-4.96-3.68-6.54-16.51-9.36-32.92-18.92-49.36-28.41-6.76-3.9-13.52-7.82-20.78-12.02,2.86-1.72,5.3-2.95,7.48-4.55,2.72-2,4.97-1.65,7.8.01,17.66,10.38,35.43,20.58,53.17,30.81,1.42.82,2.97,1.43,5.3,2.54,0-5.47.22-10.06-.12-14.6-.11-1.52-1.29-3.56-2.59-4.31C103.58,22.58,84.85,12.06,66.28,1.27c-3.02-1.76-5.29-1.64-8.2.05C40.07,11.84,21.97,22.21,3.92,32.65c-5.79,3.35-5.79,10.08-.03,13.41,28.01,16.19,56.02,32.36,84.03,48.55,4.37,2.52,8.71,5.1,13.5,7.91-2.51,1.46-4.61,2.36-6.33,3.74-3.66,2.95-6.79,2.37-10.73.06-26.06-15.3-52.28-30.34-78.46-45.45-1.57-.9-3.24-1.63-5.92-2.97,0,5.36.1,9.79-.04,14.22-.08,2.44.85,3.88,2.96,5.08,13.57,7.72,27.08,15.54,40.6,23.34,10.04,5.8,20.07,11.62,30.62,17.72-3.26,1.9-6.13,3.39-8.8,5.18-2.05,1.38-3.65,1.26-5.78.02-17.69-10.32-35.46-20.52-53.21-30.74-1.69-.97-3.44-1.86-6.36-3.44Z" style="fill: #fff;"/>
  <path d="m-.02,89.29c2.92,1.58,4.67,2.46,6.36,3.44,17.75,10.22,35.51,20.42,53.21,30.74,2.12,1.24,3.73,1.35,5.78-.02,2.66-1.79,5.53-3.28,8.8-5.18-10.54-6.1-20.57-11.92-30.62-17.72-13.52-7.8-27.04-15.62-40.6-23.34-2.11-1.2-3.04-2.65-2.96-5.08.14-4.43.04-8.87.04-14.22,2.69,1.34,4.36,2.07,5.92,2.97,26.18,15.11,52.4,30.15,78.46,45.45,3.94,2.31,7.07,2.9,10.73-.06,1.72-1.38,3.82-2.29,6.33-3.74-4.79-2.81-9.13-5.38-13.5-7.91C59.91,78.42,31.89,62.25,3.89,46.06c-5.76-3.33-5.75-10.06.03-13.41C21.97,22.21,40.07,11.84,58.08,1.32c2.9-1.7,5.17-1.81,8.2-.05,18.57,10.79,37.3,21.32,55.88,32.1,1.3.75,2.48,2.79,2.59,4.31.34,4.54.12,9.13.12,14.6-2.34-1.11-3.88-1.72-5.3-2.54-17.75-10.23-35.51-20.43-53.17-30.81-2.83-1.66-5.09-2.01-7.8-.01-2.17,1.6-4.62,2.83-7.48,4.55,7.26,4.2,14.02,8.11,20.78,12.02,16.44,9.49,32.84,19.05,49.36,28.41,2.79,1.58,3.88,3.39,3.68,6.54-.25,3.96-.06,7.95-.06,12.7-1.91-.71-3.3-1.03-4.48-1.71-27.05-15.59-54.11-31.17-81.08-46.9-2.89-1.69-5.14-1.87-7.85.07-2.4,1.71-5.04,3.06-7.99,4.82,12.15,7.02,23.81,13.76,35.48,20.5,20.98,12.12,41.96,24.24,62.95,36.36,4.25,2.45,4.43,9.89.21,12.33-18.71,10.81-37.4,21.66-56.25,32.21-1.79,1-5.13.98-6.93-.03-18.85-10.56-37.56-21.37-56.2-32.3-1.36-.8-2.5-3.03-2.63-4.68-.36-4.5-.12-9.04-.12-14.52Z"/>
</svg>